<svg xmlns="http://www.w3.org/2000/svg" viewBox="0 0 68.19 68.19"><defs><style>.cls-1{fill:#d0fff9;}.cls-2{fill:#ff595a;}</style></defs><g id="Layer_2" data-name="Layer 2"><g id="Layer_8" data-name="Layer 8"><path class="cls-1" d="M34.1,0A34.1,34.1,0,0,0,0,34.1H68.19A34.1,34.1,0,0,0,34.1,0Z"/><path class="cls-2" d="M34.1,68.19A34.09,34.09,0,0,0,68.19,34.1H0A34.1,34.1,0,0,0,34.1,68.19Z"/><path class="cls-1" d="M52.82,51.09h-5V48.78h-.07a4.58,4.58,0,0,1-.7,1,5.31,5.31,0,0,1-1.09.88,6.94,6.94,0,0,1-1.43.63,6.12,6.12,0,0,1-1.75.24,6.61,6.61,0,0,1-3.16-.73,4.64,4.64,0,0,1-2.09-2.31,5.69,5.69,0,0,1-2.2,2.34,6.56,6.56,0,0,1-3.18.7,6.47,6.47,0,0,1-2.89-.58,4.74,4.74,0,0,1-1.85-1.57,6.85,6.85,0,0,1-1-2.34,13.28,13.28,0,0,1-.3-2.89v-10h5.25V44a4,4,0,0,0,.51,2,1.92,1.92,0,0,0,1.8.85,3.61,3.61,0,0,0,1.52-.29,2.56,2.56,0,0,0,1-.83,3.29,3.29,0,0,0,.52-1.22,6.43,6.43,0,0,0,.16-1.47v-9h5.25v9c0,.31,0,.68,0,1.12a4.41,4.41,0,0,0,.25,1.26,2.32,2.32,0,0,0,.68,1,2,2,0,0,0,1.38.42,3.27,3.27,0,0,0,1.64-.36,2.51,2.51,0,0,0,1-1,3.86,3.86,0,0,0,.44-1.38,12,12,0,0,0,.11-1.61V34.1h5.24Z"/><path class="cls-1" d="M21,56.44a3,3,0,0,1-3,3,3,3,0,0,1-2.15-5.19,3,3,0,0,1,4.3,0A2.9,2.9,0,0,1,21,56.44Zm-.42-5.35H15.37v-17h5.24Z"/><path class="cls-1" d="M64.57,34.1l-8.76,8.76,3.43,3.42L68,37.52l0,0c.11-1.13.17-2.28.17-3.44Z"/><path class="cls-1" d="M9,46.28l3.43-3.42L3.62,34.1H0c0,1.16.06,2.31.17,3.44l0,0Z"/><path class="cls-2" d="M15.37,17.1h5v2.31h.08a4.19,4.19,0,0,1,.69-1,5,5,0,0,1,1.09-.87,6,6,0,0,1,1.43-.63,5.78,5.78,0,0,1,1.75-.25,6.8,6.8,0,0,1,3.17.73,4.67,4.67,0,0,1,2.08,2.31,5.69,5.69,0,0,1,2.2-2.34,6.56,6.56,0,0,1,3.18-.7,6.47,6.47,0,0,1,2.89.58,4.74,4.74,0,0,1,1.85,1.57,6.85,6.85,0,0,1,1,2.34,13.28,13.28,0,0,1,.3,2.89v10H36.84V24.2a4,4,0,0,0-.51-2.05,1.92,1.92,0,0,0-1.8-.85,3.61,3.61,0,0,0-1.52.29,2.56,2.56,0,0,0-1,.83,3.29,3.29,0,0,0-.52,1.22,6.43,6.43,0,0,0-.16,1.47v9H26.1v-9c0-.3,0-.68,0-1.12a4.77,4.77,0,0,0-.24-1.26,2.44,2.44,0,0,0-.69-1,2,2,0,0,0-1.38-.42,3.27,3.27,0,0,0-1.64.36,2.58,2.58,0,0,0-1,1A3.86,3.86,0,0,0,20.72,24a12,12,0,0,0-.11,1.61V34.1H15.37Z"/><path class="cls-2" d="M47.16,11.75a2.9,2.9,0,0,1,.89-2.15,3,3,0,0,1,5.19,2.15,3,3,0,0,1-5.19,2.15A2.9,2.9,0,0,1,47.16,11.75Zm.42,5.35h5.24v17H47.58Z"/><path class="cls-2" d="M59.24,21.91l-3.43,3.42,8.76,8.77h3.62c0-1.17-.06-2.32-.17-3.45l0,0Z"/><path class="cls-2" d="M3.62,34.1l8.76-8.77L9,21.91.19,30.67l0,0C.06,31.78,0,32.93,0,34.1Z"/><path class="cls-2" d="M64,66.5h-.64V66h1.82v.47h-.64v1.69H64ZM65.67,66h.75l.51,1.41L67.45,66h.74v2.16h-.53V66.78h0l-.53,1.41h-.36l-.53-1.41h0v1.41h-.54Z"/></g></g></svg>