<svg xmlns="http://www.w3.org/2000/svg" viewBox="0 0 112.24 29.86"><defs><style>.cls-1{fill:#ff595a;}.cls-2{fill:#afe2e3;}</style></defs><g id="Layer_2" data-name="Layer 2"><g id="Layer_8" data-name="Layer 8"><rect class="cls-1" x="37.16" y="14.33" width="31.26" height="5.25" transform="translate(3.47 42.27) rotate(-44.98)"/><path class="cls-1" d="M68.11,8.39h5V10.7h.08a4.19,4.19,0,0,1,.69-1A5.28,5.28,0,0,1,75,8.85a6,6,0,0,1,1.43-.63A6.11,6.11,0,0,1,78.18,8a6.68,6.68,0,0,1,3.17.74A4.69,4.69,0,0,1,83.43,11a5.69,5.69,0,0,1,2.2-2.34A6.67,6.67,0,0,1,88.81,8a6.47,6.47,0,0,1,2.89.58,4.74,4.74,0,0,1,1.85,1.57,6.82,6.82,0,0,1,1,2.35,13.19,13.19,0,0,1,.3,2.88v10H89.58v-9.9a3.91,3.91,0,0,0-.51-2,1.9,1.9,0,0,0-1.8-.86,3.46,3.46,0,0,0-1.52.3,2.46,2.46,0,0,0-1,.82,3.44,3.44,0,0,0-.52,1.22,6.43,6.43,0,0,0-.16,1.47v9H78.84v-9c0-.3,0-.68,0-1.12A4.77,4.77,0,0,0,78.57,14a2.5,2.5,0,0,0-.69-1,2,2,0,0,0-1.38-.42,3.16,3.16,0,0,0-1.64.37,2.48,2.48,0,0,0-1,1,3.85,3.85,0,0,0-.44,1.39,11.75,11.75,0,0,0-.11,1.61v8.46H68.11Z"/><path class="cls-1" d="M99.9,3a2.91,2.91,0,0,1,.89-2.15,3,3,0,0,1,4.3,0A3,3,0,0,1,106,3a2.94,2.94,0,0,1-.89,2.15,3,3,0,0,1-4.3,0A2.9,2.9,0,0,1,99.9,3Zm.42,5.35h5.24v17h-5.24Z"/><path class="cls-1" d="M108.05,23.71h-.64v-.47h1.81v.47h-.64v1.7h-.53Zm1.67-.47h.74l.52,1.41.51-1.41h.75v2.17h-.54V24h0l-.53,1.41h-.37L110.26,24h0v1.41h-.53Z"/><path class="cls-2" d="M0,8.39H5V10.7h.08a4.19,4.19,0,0,1,.69-1,5.28,5.28,0,0,1,1.09-.87,6,6,0,0,1,1.43-.63A6.11,6.11,0,0,1,10.07,8a6.68,6.68,0,0,1,3.17.74A4.69,4.69,0,0,1,15.32,11a5.69,5.69,0,0,1,2.2-2.34A6.67,6.67,0,0,1,20.7,8a6.44,6.44,0,0,1,2.89.58,4.67,4.67,0,0,1,1.85,1.57,6.82,6.82,0,0,1,1,2.35,13.19,13.19,0,0,1,.3,2.88v10H21.47v-9.9a3.91,3.91,0,0,0-.51-2,1.89,1.89,0,0,0-1.8-.86,3.46,3.46,0,0,0-1.52.3,2.46,2.46,0,0,0-1,.82,3.44,3.44,0,0,0-.52,1.22A6.43,6.43,0,0,0,16,16.4v9H10.73v-9c0-.3,0-.68,0-1.12A4.4,4.4,0,0,0,10.46,14a2.5,2.5,0,0,0-.69-1,2,2,0,0,0-1.38-.42A3.19,3.19,0,0,0,6.75,13a2.48,2.48,0,0,0-1,1,4.05,4.05,0,0,0-.44,1.39,11.75,11.75,0,0,0-.11,1.61v8.46H0Z"/><path class="cls-2" d="M31.79,3A2.91,2.91,0,0,1,32.68.89a3,3,0,0,1,4.3,0A3,3,0,0,1,37.87,3,2.94,2.94,0,0,1,37,5.19a3,3,0,0,1-4.3,0A2.9,2.9,0,0,1,31.79,3Zm.42,5.35h5.24v17H32.21Z"/><rect class="cls-2" x="50.16" y="1.32" width="5.25" height="31.26" transform="translate(3.48 42.29) rotate(-45)"/></g></g></svg>