<svg width="100" height="32" viewBox="0 0 100 32" fill="none" xmlns="http://www.w3.org/2000/svg">
  <path d="M10.276 23.5V8.5H14.252L20.828 17.984V8.5H24.804V23.5H20.828L14.252 14.016V23.5H10.276ZM32.129 23.5V8.5H36.105V23.5H32.129ZM49.113 23.5L43.225 15.724V23.5H39.249V8.5H43.225V15.64L48.825 8.5H53.729L47.001 16.524L54.305 23.5H49.113ZM60.594 23.5V11.804H55.834V8.5H69.354V11.804H64.594V23.5H60.594ZM84.057 23.5V8.5H88.033L94.609 17.984V8.5H98.585V23.5H94.609L88.033 14.016V23.5H84.057Z" fill="#22D3EE"/>
  <path d="M1 12.064L4.976 12.064L4.976 8.5L1 8.5L1 12.064Z" fill="#22D3EE"/>
  <path d="M1 19L4.976 19L4.976 15.436L1 15.436L1 19Z" fill="#22D3EE"/>
  <path d="M1 25.936L4.976 25.936L4.976 22.372L1 22.372L1 25.936Z" fill="#22D3EE"/>
</svg>